<?xml version="1.0" encoding="iso-8859-1"?>
<!-- Uploaded to: SVG Repo, www.svgrepo.com, Generator: SVG Repo Mixer Tools -->
<svg height="800px" width="800px" version="1.1" id="Layer_1" xmlns="http://www.w3.org/2000/svg" xmlns:xlink="http://www.w3.org/1999/xlink" 
	 viewBox="0 0 512 512" xml:space="preserve">
<path style="fill:#EC5565;" d="M512,256.006C512,397.402,397.394,512.004,256.004,512C114.606,512.004,0,397.402,0,256.006
	C-0.007,114.61,114.606,0,256.004,0C397.394,0,512,114.614,512,256.006z"/>
<path style="fill:#D94453;" d="M512,256.005c0-2.013-0.106-4-0.151-6.002c-0.317-0.321-144.646-144.663-145.151-145.15
	C338.176,76.674,298.788,58.88,256,58.88c-84.588,0-156.053,69.389-156.053,151.522c0,79.881,52.334,149.209,95.491,192.819
	c0.762,0.777,1.504,1.5,2.26,2.261c0.246,0.25,101.57,101.567,101.815,101.814c0.271,0.276,0.538,0.539,0.804,0.804
	C420.573,487.108,512,382.278,512,256.005z"/>
<g>
	<path style="fill:#F4F6F9;" d="M256,58.88c-84.588,0-156.053,69.388-156.053,151.521c0,133.013,145.141,236.863,151.321,241.218
		c1.42,0.998,3.076,1.5,4.733,1.5c1.657,0,3.313-0.501,4.733-1.5c6.179-4.354,151.321-108.204,151.321-241.218
		C412.053,128.268,340.588,58.88,256,58.88z M255.996,434.672c-24.932-19.034-139.622-112.669-139.622-224.271
		c0-73.23,63.942-135.094,139.627-135.094s139.627,61.865,139.627,135.094C395.627,321.887,280.921,415.627,255.996,434.672z"/>
	<path style="fill:#F4F6F9;" d="M256,116.373c-54.346,0-98.56,42.37-98.56,94.453S201.654,305.28,256,305.28
		s98.56-42.37,98.56-94.453S310.346,116.373,256,116.373z M256,288.853c-45.29,0-82.133-35.003-82.133-78.027
		S210.71,132.8,256,132.8s82.133,35.003,82.133,78.027S301.29,288.853,256,288.853z"/>
</g>
</svg>