<svg width="20" height="24" viewBox="0 0 20 24" fill="none" xmlns="http://www.w3.org/2000/svg">
<g filter="url(#filter0_d_831_1393)">
<path fill-rule="evenodd" clip-rule="evenodd" d="M11.4215 4.24997C11.6143 4.50346 11.7107 4.88321 11.5179 5.18874C11.5179 5.20898 11.5179 5.22922 11.5179 5.25043C11.2288 5.66777 11.036 6.03788 11.036 6.50052C11.036 6.93232 11.4215 7.71785 12.3854 8.58819C13.8311 9.76696 14.5058 11.2195 14.8913 12.3577C14.9877 12.9283 15.0841 13.4276 15.1805 13.7871C15.1805 13.9674 15.1805 14.1148 15.1805 14.2189C15.1805 14.271 15.1805 14.3134 15.1805 14.3442C15.1805 14.3587 15.1805 14.3712 15.1805 14.3808V14.3924V14.3972V14.3982C15.1805 14.3982 15.1805 14.4001 14.4094 14.4001H15.1805C15.1805 17.4931 12.6745 20 9.59025 20C6.50597 20 4 17.4931 4 14.4001C4 12.857 4.19277 11.5096 4.48192 10.5101C4.67468 10.0127 4.86745 9.57612 5.06022 9.23685C5.1566 9.06818 5.25299 8.9024 5.44575 8.76457C5.54214 8.63156 5.7349 8.48024 6.02405 8.41952C6.21682 8.37036 6.50597 8.41566 6.69874 8.54482C6.89151 8.67397 6.98789 8.87541 6.98789 9.09902C6.98789 9.30143 7.08427 9.59733 7.27704 9.90961C7.27704 9.37853 7.27704 8.81566 7.37342 8.24892C7.66257 6.67209 8.53003 5.01814 10.4577 4.08033C10.8432 3.92805 11.1324 3.99648 11.4215 4.24997ZM13.5415 14.4018C13.5415 16.6099 11.8066 18.3998 9.58977 18.3998C7.37295 18.3998 5.54167 16.609 5.54167 14.3999C5.54167 13.0331 5.73443 11.8717 6.02358 11.0457C6.11997 11.1604 6.11997 11.2741 6.21635 11.3831C6.60189 12.0067 7.37295 12.7999 8.33679 12.7999C8.62594 12.7999 8.81871 12.6813 9.01147 12.4789C9.10786 12.2775 9.20424 12.0163 9.10786 11.7744C8.91509 11.0669 8.72232 9.79852 8.91509 8.55035C9.10786 8.01735 9.20424 7.49977 9.49339 7.03038C9.68616 7.92097 10.2645 8.85107 11.4211 9.81105C12.4813 10.7325 13.0596 11.8804 13.3487 12.8172C13.4451 13.2837 13.5415 13.6914 13.5415 13.9777C13.5415 14.1213 13.5415 14.2331 13.5415 14.3064C13.5415 14.343 13.5415 14.369 13.5415 14.3854V14.4008V14.4018Z" fill="#AF2B20"/>
</g>
<defs>
<filter id="filter0_d_831_1393" x="0" y="0" width="19.1807" height="24" filterUnits="userSpaceOnUse" color-interpolation-filters="sRGB">
<feFlood flood-opacity="0" result="BackgroundImageFix"/>
<feColorMatrix in="SourceAlpha" type="matrix" values="0 0 0 0 0 0 0 0 0 0 0 0 0 0 0 0 0 0 127 0" result="hardAlpha"/>
<feOffset/>
<feGaussianBlur stdDeviation="2"/>
<feColorMatrix type="matrix" values="0 0 0 0 0.623529 0 0 0 0 0.133333 0 0 0 0 0.0901961 0 0 0 1 0"/>
<feBlend mode="normal" in2="BackgroundImageFix" result="effect1_dropShadow_831_1393"/>
<feBlend mode="normal" in="SourceGraphic" in2="effect1_dropShadow_831_1393" result="shape"/>
</filter>
</defs>
</svg>
